<?xml version="1.0" encoding="UTF-8"?>
<svg id="Capa_2" data-name="Capa 2" xmlns="http://www.w3.org/2000/svg" viewBox="0 0 83.8 56.15">
  <defs>
    <style>
      .cls-1 {
        fill: #5b6af1;
      }

      .cls-2 {
        fill: #d9d2cc;
      }
    </style>
  </defs>
  <g id="Capa_2-2" data-name="Capa 2">
    <g>
      <polygon class="cls-2" points="10.03 0 10.03 5.53 0 2.63 0 0 10.03 0"/>
      <polygon class="cls-2" points="23.26 0 23.26 9.34 12.15 6.14 12.15 0 23.26 0"/>
      <polygon class="cls-2" points="23.26 11.55 23.26 21.12 12.15 21.12 12.15 8.35 23.26 11.55"/>
      <polygon class="cls-2" points="83.8 0 83.8 6.71 76.71 1.59 78.55 0 83.8 0"/>
      <polygon class="cls-2" points="83.8 9.33 83.8 14.65 65.45 11.29 75.05 3.02 83.8 9.33"/>
      <polygon class="cls-2" points="83.8 16.81 83.8 23.63 73.66 25.15 73.66 14.95 83.8 16.81"/>
      <polygon class="cls-2" points="83.8 25.77 83.8 30.16 73.66 28.3 73.66 27.29 83.8 25.77"/>
      <polygon class="cls-2" points="83.8 32.31 83.8 38.49 73.66 36.64 73.66 30.46 83.8 32.31"/>
      <polygon class="cls-2" points="83.8 50.12 83.8 56.15 83.26 56.15 82.39 50.33 83.8 50.12"/>
      <polygon class="cls-2" points="83.8 40.65 83.8 47.97 82.08 48.23 80.86 40.12 83.8 40.65"/>
      <polygon class="cls-2" points="79.98 48.55 73.66 49.49 73.66 38.8 78.66 39.71 79.98 48.55"/>
      <polygon class="cls-2" points="81.12 56.15 73.66 56.15 73.66 51.64 80.29 50.65 81.12 56.15"/>
      <polygon class="cls-2" points="71.54 51.96 71.54 56.15 62.08 56.15 61.67 53.44 71.54 51.96"/>
      <polygon class="cls-2" points="71.54 34.13 71.54 49.81 61.35 51.34 59.62 39.79 71.54 34.13"/>
      <polygon class="cls-2" points="59.93 56.15 41.08 56.15 41.32 48.18 41.44 48.42 57.62 40.74 59.93 56.15"/>
      <polygon class="cls-2" points="71.54 27.61 71.54 31.78 41.39 46.1 41.82 32.06 71.54 27.61"/>
      <polygon class="cls-2" points="71.54 14.57 71.54 25.47 51.43 28.47 53.59 26.1 53.58 26.09 53.98 25.65 51.46 23.35 63.38 13.07 71.54 14.57"/>
      <polygon class="cls-2" points="73.29 1.74 62.76 10.81 55.81 9.53 55.8 9.51 55.74 9.52 55.74 9.52 55.67 9.51 55.67 9.54 50.83 10.72 48.21 0 70.88 0 73.29 1.74"/>
      <polygon class="cls-2" points="43.43 0 25.39 15.55 25.39 0 43.43 0"/>
      <polygon class="cls-2" points="48.77 11.23 27.65 16.4 46.14 .47 48.77 11.23"/>
      <polygon class="cls-2" points="39.46 39.81 38.95 56.15 33.66 56.15 33.66 37.75 39.46 39.81"/>
      <polygon class="cls-2" points="31.54 43.1 31.54 56.15 19.67 56.15 31.54 43.1"/>
      <g>
        <polygon class="cls-1" points="60.7 12.58 50.11 21.7 47.13 13.81 55.81 11.69 55.81 11.69 60.7 12.58"/>
        <polygon class="cls-1" points="48.38 28.68 48.62 28.9 39.76 30.22 39.75 30.22 39.53 37.59 25.39 32.55 25.39 19.14 45.05 14.32 48.55 23.58 48.56 23.58 51 25.8 48.38 28.68"/>
        <polygon class="cls-1" points="31.54 37 31.54 39.94 21.25 51.26 21.25 33.33 31.54 37"/>
      </g>
      <polygon class="cls-2" points="19.13 46.06 19.13 51.88 6.24 51.88 13.39 44.01 19.13 46.06"/>
      <polygon class="cls-2" points="18.76 54 16.8 56.15 0 56.15 0 54 4.24 54 4.28 54.04 4.31 54 18.76 54"/>
      <polygon class="cls-2" points="3.07 40.34 0 43.71 0 39.25 3.07 40.34"/>
      <polygon class="cls-2" points="11.22 43.24 3.37 51.88 0 51.88 0 46.86 5.23 41.11 11.22 43.24"/>
      <polygon class="cls-2" points="19.13 32.58 19.13 43.8 0 36.99 0 25.76 19.13 32.58"/>
      <polygon class="cls-2" points="23.26 23.24 23.26 31.8 12.15 27.84 12.15 23.24 23.26 23.24"/>
      <polygon class="cls-2" points="10.03 15.76 10.03 27.08 0 23.51 0 17.04 10.03 15.76"/>
      <polygon class="cls-2" points="10.03 7.74 10.03 13.62 0 14.9 0 4.85 10.03 7.74"/>
    </g>
  </g>
</svg>